<?xml version="1.0" encoding="UTF-8" ?>
<svg version="1.1" width="37" height="26" xmlns="http://www.w3.org/2000/svg" shape-rendering="crispEdges">
<rect x="13" y="0" width="1" height="1" fill="#809DBA" />
<rect x="14" y="0" width="1" height="1" fill="#699FD9" />
<rect x="15" y="0" width="1" height="1" fill="#5A9CDF" />
<rect x="16" y="0" width="1" height="1" fill="#5EA2E5" />
<rect x="17" y="0" width="1" height="1" fill="#64A3DD" />
<rect x="18" y="0" width="1" height="1" fill="#69A0D6" />
<rect x="14" y="1" width="1" height="1" fill="#669BCE" />
<rect x="15" y="1" width="1" height="1" fill="#589ADD" />
<rect x="16" y="1" width="1" height="1" fill="#5CA2E7" />
<rect x="17" y="1" width="1" height="1" fill="#5EA2E5" />
<rect x="18" y="1" width="1" height="1" fill="#64A3DD" />
<rect x="19" y="1" width="1" height="1" fill="#6F9ED2" />
<rect x="14" y="2" width="1" height="1" fill="#638FBC" />
<rect x="15" y="2" width="1" height="1" fill="#5494D3" />
<rect x="16" y="2" width="1" height="1" fill="#4C92DA" />
<rect x="17" y="2" width="1" height="1" fill="#4994E0" />
<rect x="18" y="2" width="1" height="1" fill="#4B96E3" />
<rect x="19" y="2" width="1" height="1" fill="#5298E1" />
<rect x="20" y="2" width="1" height="1" fill="#5B98D9" />
<rect x="21" y="2" width="1" height="1" fill="#6EA0D2" />
<rect x="15" y="3" width="1" height="1" fill="#5891CA" />
<rect x="16" y="3" width="1" height="1" fill="#478ED7" />
<rect x="17" y="3" width="1" height="1" fill="#3C8DE1" />
<rect x="18" y="3" width="1" height="1" fill="#3585D7" />
<rect x="19" y="3" width="1" height="1" fill="#3585D7" />
<rect x="20" y="3" width="1" height="1" fill="#3983D2" />
<rect x="21" y="3" width="1" height="1" fill="#3D7EC1" />
<rect x="22" y="3" width="1" height="1" fill="#6D9ED3" />
<rect x="23" y="3" width="1" height="1" fill="#749FC8" />
<rect x="24" y="3" width="1" height="1" fill="#749FC8" />
<rect x="25" y="3" width="1" height="1" fill="#749FC8" />
<rect x="26" y="3" width="1" height="1" fill="#759EC8" />
<rect x="27" y="3" width="1" height="1" fill="#749FC8" />
<rect x="28" y="3" width="1" height="1" fill="#769FC9" />
<rect x="29" y="3" width="1" height="1" fill="#7A9EC1" />
<rect x="16" y="4" width="1" height="1" fill="#3D84CC" />
<rect x="17" y="4" width="1" height="1" fill="#3085DA" />
<rect x="18" y="4" width="1" height="1" fill="#3186DB" />
<rect x="19" y="4" width="1" height="1" fill="#3585D7" />
<rect x="20" y="4" width="1" height="1" fill="#4591E2" />
<rect x="21" y="4" width="1" height="1" fill="#4E96E0" />
<rect x="22" y="4" width="1" height="1" fill="#5A9ADD" />
<rect x="23" y="4" width="1" height="1" fill="#65A1DD" />
<rect x="24" y="4" width="1" height="1" fill="#65A1DD" />
<rect x="25" y="4" width="1" height="1" fill="#65A1DD" />
<rect x="26" y="4" width="1" height="1" fill="#66A1DC" />
<rect x="27" y="4" width="1" height="1" fill="#65A1DC" />
<rect x="28" y="4" width="1" height="1" fill="#66A1DC" />
<rect x="29" y="4" width="1" height="1" fill="#67A1D9" />
<rect x="30" y="4" width="1" height="1" fill="#6BA0D4" />
<rect x="31" y="4" width="1" height="1" fill="#70A1CD" />
<rect x="32" y="4" width="1" height="1" fill="#769FC6" />
<rect x="15" y="5" width="1" height="1" fill="#4F81B5" />
<rect x="16" y="5" width="1" height="1" fill="#3984D0" />
<rect x="17" y="5" width="1" height="1" fill="#2F86DE" />
<rect x="18" y="5" width="1" height="1" fill="#3C8FE4" />
<rect x="19" y="5" width="1" height="1" fill="#4294E9" />
<rect x="20" y="5" width="1" height="1" fill="#4996E7" />
<rect x="21" y="5" width="1" height="1" fill="#5098E7" />
<rect x="22" y="5" width="1" height="1" fill="#569CE5" />
<rect x="23" y="5" width="1" height="1" fill="#5CA2E7" />
<rect x="24" y="5" width="1" height="1" fill="#5EA2E6" />
<rect x="25" y="5" width="1" height="1" fill="#5EA2E6" />
<rect x="26" y="5" width="1" height="1" fill="#5EA2E5" />
<rect x="27" y="5" width="1" height="1" fill="#5EA2E5" />
<rect x="28" y="5" width="1" height="1" fill="#5EA2E5" />
<rect x="29" y="5" width="1" height="1" fill="#5EA2E5" />
<rect x="30" y="5" width="1" height="1" fill="#5EA2E5" />
<rect x="31" y="5" width="1" height="1" fill="#61A3E0" />
<rect x="32" y="5" width="1" height="1" fill="#66A1DC" />
<rect x="33" y="5" width="1" height="1" fill="#749FCA" />
<rect x="14" y="6" width="1" height="1" fill="#5791CB" />
<rect x="15" y="6" width="1" height="1" fill="#3983CF" />
<rect x="16" y="6" width="1" height="1" fill="#3385D8" />
<rect x="17" y="6" width="1" height="1" fill="#3B8DE2" />
<rect x="18" y="6" width="1" height="1" fill="#4293E4" />
<rect x="19" y="6" width="1" height="1" fill="#4894E5" />
<rect x="20" y="6" width="1" height="1" fill="#4C97E4" />
<rect x="21" y="6" width="1" height="1" fill="#529BE6" />
<rect x="22" y="6" width="1" height="1" fill="#5BA2E9" />
<rect x="23" y="6" width="1" height="1" fill="#5EA2E6" />
<rect x="24" y="6" width="1" height="1" fill="#5EA2E6" />
<rect x="25" y="6" width="1" height="1" fill="#5EA2E5" />
<rect x="26" y="6" width="1" height="1" fill="#5EA2E5" />
<rect x="27" y="6" width="1" height="1" fill="#5EA2E5" />
<rect x="28" y="6" width="1" height="1" fill="#5EA2E5" />
<rect x="29" y="6" width="1" height="1" fill="#5EA2E5" />
<rect x="30" y="6" width="1" height="1" fill="#5EA2E5" />
<rect x="31" y="6" width="1" height="1" fill="#5FA2E3" />
<rect x="32" y="6" width="1" height="1" fill="#60A2E3" />
<rect x="33" y="6" width="1" height="1" fill="#67A1D9" />
<rect x="34" y="6" width="1" height="1" fill="#749FCA" />
<rect x="13" y="7" width="1" height="1" fill="#4F81B5" />
<rect x="14" y="7" width="1" height="1" fill="#3984D0" />
<rect x="15" y="7" width="1" height="1" fill="#3186DB" />
<rect x="16" y="7" width="1" height="1" fill="#3585D7" />
<rect x="17" y="7" width="1" height="1" fill="#408FDE" />
<rect x="18" y="7" width="1" height="1" fill="#4B96E3" />
<rect x="19" y="7" width="1" height="1" fill="#4F98E3" />
<rect x="20" y="7" width="1" height="1" fill="#4F98E3" />
<rect x="21" y="7" width="1" height="1" fill="#519AE5" />
<rect x="22" y="7" width="1" height="1" fill="#579CE6" />
<rect x="23" y="7" width="1" height="1" fill="#5BA2E9" />
<rect x="24" y="7" width="1" height="1" fill="#5EA2E6" />
<rect x="25" y="7" width="1" height="1" fill="#5EA2E5" />
<rect x="26" y="7" width="1" height="1" fill="#5EA2E5" />
<rect x="27" y="7" width="1" height="1" fill="#60A2E3" />
<rect x="28" y="7" width="1" height="1" fill="#63A1E0" />
<rect x="29" y="7" width="1" height="1" fill="#63A1E0" />
<rect x="30" y="7" width="1" height="1" fill="#60A2E3" />
<rect x="31" y="7" width="1" height="1" fill="#5EA2E5" />
<rect x="32" y="7" width="1" height="1" fill="#5EA2E5" />
<rect x="33" y="7" width="1" height="1" fill="#60A2E3" />
<rect x="34" y="7" width="1" height="1" fill="#5EA2E5" />
<rect x="35" y="7" width="1" height="1" fill="#749FCA" />
<rect x="11" y="8" width="1" height="1" fill="#4B82BA" />
<rect x="12" y="8" width="1" height="1" fill="#4183C7" />
<rect x="13" y="8" width="1" height="1" fill="#3983D2" />
<rect x="14" y="8" width="1" height="1" fill="#3486D7" />
<rect x="15" y="8" width="1" height="1" fill="#3486D7" />
<rect x="16" y="8" width="1" height="1" fill="#55A3F1" />
<rect x="17" y="8" width="1" height="1" fill="#59A2E8" />
<rect x="18" y="8" width="1" height="1" fill="#5BA2E9" />
<rect x="19" y="8" width="1" height="1" fill="#5AA3E9" />
<rect x="20" y="8" width="1" height="1" fill="#559CE5" />
<rect x="21" y="8" width="1" height="1" fill="#4890D9" />
<rect x="22" y="8" width="1" height="1" fill="#4C94E2" />
<rect x="23" y="8" width="1" height="1" fill="#5097E2" />
<rect x="24" y="8" width="1" height="1" fill="#5BA2E9" />
<rect x="25" y="8" width="1" height="1" fill="#5CA3E4" />
<rect x="26" y="8" width="1" height="1" fill="#5EA1E4" />
<rect x="27" y="8" width="1" height="1" fill="#63A1E0" />
<rect x="28" y="8" width="1" height="1" fill="#6BA0D6" />
<rect x="29" y="8" width="1" height="1" fill="#6BA0D6" />
<rect x="30" y="8" width="1" height="1" fill="#63A1E0" />
<rect x="31" y="8" width="1" height="1" fill="#5CA4E5" />
<rect x="32" y="8" width="1" height="1" fill="#5EA2E5" />
<rect x="33" y="8" width="1" height="1" fill="#5CA4E5" />
<rect x="34" y="8" width="1" height="1" fill="#5AA6E6" />
<rect x="35" y="8" width="1" height="1" fill="#4A91D8" />
<rect x="36" y="8" width="1" height="1" fill="#749FCA" />
<rect x="10" y="9" width="1" height="1" fill="#4982BD" />
<rect x="11" y="9" width="1" height="1" fill="#3983D2" />
<rect x="12" y="9" width="1" height="1" fill="#3084DD" />
<rect x="13" y="9" width="1" height="1" fill="#2F86DE" />
<rect x="14" y="9" width="1" height="1" fill="#3486D7" />
<rect x="15" y="9" width="1" height="1" fill="#54A3F3" />
<rect x="16" y="9" width="1" height="1" fill="#5BA4EA" />
<rect x="17" y="9" width="1" height="1" fill="#49A2E8" />
<rect x="18" y="9" width="1" height="1" fill="#5EA2E5" />
<rect x="19" y="9" width="1" height="1" fill="#5EA2E5" />
<rect x="20" y="9" width="1" height="1" fill="#4F90D1" />
<rect x="21" y="9" width="1" height="1" fill="#4F90D1" />
<rect x="22" y="9" width="1" height="1" fill="#5294D6" />
<rect x="23" y="9" width="1" height="1" fill="#5594D7" />
<rect x="24" y="9" width="1" height="1" fill="#5899D8" />
<rect x="25" y="9" width="1" height="1" fill="#63A1E0" />
<rect x="26" y="9" width="1" height="1" fill="#64A3DD" />
<rect x="27" y="9" width="1" height="1" fill="#4B7FB2" />
<rect x="28" y="9" width="1" height="1" fill="#001434" />
<rect x="29" y="9" width="1" height="1" fill="#001434" />
<rect x="30" y="9" width="1" height="1" fill="#527FB0" />
<rect x="31" y="9" width="1" height="1" fill="#5CA4E5" />
<rect x="32" y="9" width="1" height="1" fill="#5EA2E5" />
<rect x="33" y="9" width="1" height="1" fill="#5CA4E5" />
<rect x="34" y="9" width="1" height="1" fill="#4E9ADB" />
<rect x="35" y="9" width="1" height="1" fill="#59A8E4" />
<rect x="36" y="9" width="1" height="1" fill="#749FCA" />
<rect x="9" y="10" width="1" height="1" fill="#477EB3" />
<rect x="10" y="10" width="1" height="1" fill="#3984D0" />
<rect x="11" y="10" width="1" height="1" fill="#3186DB" />
<rect x="12" y="10" width="1" height="1" fill="#2F85E0" />
<rect x="13" y="10" width="1" height="1" fill="#3287DC" />
<rect x="14" y="10" width="1" height="1" fill="#3F8AD7" />
<rect x="15" y="10" width="1" height="1" fill="#5AA1EC" />
<rect x="16" y="10" width="1" height="1" fill="#5CA2E7" />
<rect x="17" y="10" width="1" height="1" fill="#5EA2E5" />
<rect x="18" y="10" width="1" height="1" fill="#60A2E3" />
<rect x="19" y="10" width="1" height="1" fill="#63A1E0" />
<rect x="20" y="10" width="1" height="1" fill="#4F83B7" />
<rect x="21" y="10" width="1" height="1" fill="#5B8BBC" />
<rect x="22" y="10" width="1" height="1" fill="#5B89B7" />
<rect x="23" y="10" width="1" height="1" fill="#5E8BBA" />
<rect x="24" y="10" width="1" height="1" fill="#618FBE" />
<rect x="25" y="10" width="1" height="1" fill="#6597C8" />
<rect x="26" y="10" width="1" height="1" fill="#6D9ED3" />
<rect x="27" y="10" width="1" height="1" fill="#2D547B" />
<rect x="28" y="10" width="1" height="1" fill="#001330" />
<rect x="29" y="10" width="1" height="1" fill="#2E5479" />
<rect x="30" y="10" width="1" height="1" fill="#65A1DD" />
<rect x="31" y="10" width="1" height="1" fill="#5EA1E4" />
<rect x="32" y="10" width="1" height="1" fill="#5EA2E5" />
<rect x="33" y="10" width="1" height="1" fill="#5EA2E5" />
<rect x="34" y="10" width="1" height="1" fill="#5CA4E5" />
<rect x="35" y="10" width="1" height="1" fill="#61A3DE" />
<rect x="36" y="10" width="1" height="1" fill="#749FCA" />
<rect x="8" y="11" width="1" height="1" fill="#477BAE" />
<rect x="9" y="11" width="1" height="1" fill="#3A85CE" />
<rect x="10" y="11" width="1" height="1" fill="#3186D9" />
<rect x="11" y="11" width="1" height="1" fill="#2C86E0" />
<rect x="12" y="11" width="1" height="1" fill="#2C86E0" />
<rect x="13" y="11" width="1" height="1" fill="#3385D8" />
<rect x="14" y="11" width="1" height="1" fill="#4089D4" />
<rect x="15" y="11" width="1" height="1" fill="#5BA2E9" />
<rect x="16" y="11" width="1" height="1" fill="#5EA2E6" />
<rect x="17" y="11" width="1" height="1" fill="#60A2E3" />
<rect x="18" y="11" width="1" height="1" fill="#66A1DC" />
<rect x="19" y="11" width="1" height="1" fill="#6698C9" />
<rect x="20" y="11" width="1" height="1" fill="#81A7CE" />
<rect x="21" y="11" width="1" height="1" fill="#95B6D9" />
<rect x="22" y="11" width="1" height="1" fill="#A0C1E3" />
<rect x="23" y="11" width="1" height="1" fill="#A1C3E5" />
<rect x="24" y="11" width="1" height="1" fill="#9ABCE0" />
<rect x="25" y="11" width="1" height="1" fill="#8BAED1" />
<rect x="26" y="11" width="1" height="1" fill="#7899BD" />
<rect x="27" y="11" width="1" height="1" fill="#698DB4" />
<rect x="28" y="11" width="1" height="1" fill="#648DB7" />
<rect x="29" y="11" width="1" height="1" fill="#6696CA" />
<rect x="30" y="11" width="1" height="1" fill="#63A1E0" />
<rect x="31" y="11" width="1" height="1" fill="#5EA2E5" />
<rect x="32" y="11" width="1" height="1" fill="#5EA2E5" />
<rect x="33" y="11" width="1" height="1" fill="#5EA2E5" />
<rect x="34" y="11" width="1" height="1" fill="#5EA2E5" />
<rect x="35" y="11" width="1" height="1" fill="#65A1DC" />
<rect x="36" y="11" width="1" height="1" fill="#759EC8" />
<rect x="7" y="12" width="1" height="1" fill="#4982BD" />
<rect x="8" y="12" width="1" height="1" fill="#3984D0" />
<rect x="9" y="12" width="1" height="1" fill="#3186DB" />
<rect x="10" y="12" width="1" height="1" fill="#2D87DE" />
<rect x="11" y="12" width="1" height="1" fill="#2C86E0" />
<rect x="12" y="12" width="1" height="1" fill="#2D87DE" />
<rect x="13" y="12" width="1" height="1" fill="#3486D7" />
<rect x="14" y="12" width="1" height="1" fill="#418BD8" />
<rect x="15" y="12" width="1" height="1" fill="#5AA1EC" />
<rect x="16" y="12" width="1" height="1" fill="#5CA2E7" />
<rect x="17" y="12" width="1" height="1" fill="#65A1DC" />
<rect x="18" y="12" width="1" height="1" fill="#749FCA" />
<rect x="19" y="12" width="1" height="1" fill="#8FADCB" />
<rect x="20" y="12" width="1" height="1" fill="#B1C4D8" />
<rect x="21" y="12" width="1" height="1" fill="#B8C4D1" />
<rect x="22" y="12" width="1" height="1" fill="#BAC1CF" />
<rect x="23" y="12" width="1" height="1" fill="#BBC2D0" />
<rect x="24" y="12" width="1" height="1" fill="#B9C5D2" />
<rect x="25" y="12" width="1" height="1" fill="#B6C5D4" />
<rect x="26" y="12" width="1" height="1" fill="#B6C6D7" />
<rect x="27" y="12" width="1" height="1" fill="#8AA4C3" />
<rect x="28" y="12" width="1" height="1" fill="#6494C8" />
<rect x="29" y="12" width="1" height="1" fill="#5B9CDB" />
<rect x="30" y="12" width="1" height="1" fill="#5EA2E5" />
<rect x="31" y="12" width="1" height="1" fill="#5CA2E7" />
<rect x="32" y="12" width="1" height="1" fill="#5EA2E5" />
<rect x="33" y="12" width="1" height="1" fill="#5EA2E5" />
<rect x="34" y="12" width="1" height="1" fill="#5EA2E5" />
<rect x="35" y="12" width="1" height="1" fill="#65A1DC" />
<rect x="36" y="12" width="1" height="1" fill="#759DC7" />
<rect x="6" y="13" width="1" height="1" fill="#4185C3" />
<rect x="7" y="13" width="1" height="1" fill="#3983D2" />
<rect x="8" y="13" width="1" height="1" fill="#3084DD" />
<rect x="9" y="13" width="1" height="1" fill="#2F85E0" />
<rect x="10" y="13" width="1" height="1" fill="#3186DB" />
<rect x="11" y="13" width="1" height="1" fill="#3385D6" />
<rect x="12" y="13" width="1" height="1" fill="#3585D5" />
<rect x="13" y="13" width="1" height="1" fill="#347ABF" />
<rect x="14" y="13" width="1" height="1" fill="#4691DD" />
<rect x="15" y="13" width="1" height="1" fill="#559AE1" />
<rect x="16" y="13" width="1" height="1" fill="#65A1DD" />
<rect x="17" y="13" width="1" height="1" fill="#6F9FD0" />
<rect x="18" y="13" width="1" height="1" fill="#88A6C3" />
<rect x="19" y="13" width="1" height="1" fill="#B7C8D9" />
<rect x="20" y="13" width="1" height="1" fill="#C2C8CD" />
<rect x="21" y="13" width="1" height="1" fill="#C7C7C7" />
<rect x="22" y="13" width="1" height="1" fill="#CAC6C8" />
<rect x="23" y="13" width="1" height="1" fill="#CAC6C8" />
<rect x="24" y="13" width="1" height="1" fill="#C9C9C9" />
<rect x="25" y="13" width="1" height="1" fill="#C9C9CC" />
<rect x="26" y="13" width="1" height="1" fill="#C7C9D0" />
<rect x="27" y="13" width="1" height="1" fill="#B5CDE4" />
<rect x="28" y="13" width="1" height="1" fill="#709FCF" />
<rect x="29" y="13" width="1" height="1" fill="#5797D6" />
<rect x="30" y="13" width="1" height="1" fill="#559ADD" />
<rect x="31" y="13" width="1" height="1" fill="#5AA3E9" />
<rect x="32" y="13" width="1" height="1" fill="#5CA2E7" />
<rect x="33" y="13" width="1" height="1" fill="#5CA4E5" />
<rect x="34" y="13" width="1" height="1" fill="#5EA2E6" />
<rect x="35" y="13" width="1" height="1" fill="#66A1DC" />
<rect x="36" y="13" width="1" height="1" fill="#789EC6" />
<rect x="4" y="14" width="1" height="1" fill="#46AFE9" />
<rect x="5" y="14" width="1" height="1" fill="#2C88C3" />
<rect x="6" y="14" width="1" height="1" fill="#2E8AD8" />
<rect x="7" y="14" width="1" height="1" fill="#3186DB" />
<rect x="8" y="14" width="1" height="1" fill="#2F85E0" />
<rect x="9" y="14" width="1" height="1" fill="#3186DB" />
<rect x="10" y="14" width="1" height="1" fill="#3B84CE" />
<rect x="11" y="14" width="1" height="1" fill="#4183C7" />
<rect x="12" y="14" width="1" height="1" fill="#61A9F2" />
<rect x="13" y="14" width="1" height="1" fill="#4F93D8" />
<rect x="14" y="14" width="1" height="1" fill="#498ED5" />
<rect x="15" y="14" width="1" height="1" fill="#62A0E2" />
<rect x="16" y="14" width="1" height="1" fill="#6B94C2" />
<rect x="17" y="14" width="1" height="1" fill="#90AFCD" />
<rect x="18" y="14" width="1" height="1" fill="#BDCEE0" />
<rect x="19" y="14" width="1" height="1" fill="#C7CED3" />
<rect x="20" y="14" width="1" height="1" fill="#DADDE1" />
<rect x="21" y="14" width="1" height="1" fill="#DADDE1" />
<rect x="22" y="14" width="1" height="1" fill="#DADDE1" />
<rect x="23" y="14" width="1" height="1" fill="#DADDE1" />
<rect x="24" y="14" width="1" height="1" fill="#DADDE1" />
<rect x="25" y="14" width="1" height="1" fill="#DADDE1" />
<rect x="26" y="14" width="1" height="1" fill="#D0D0D4" />
<rect x="27" y="14" width="1" height="1" fill="#C3D4E1" />
<rect x="28" y="14" width="1" height="1" fill="#A0C0E7" />
<rect x="29" y="14" width="1" height="1" fill="#608EC0" />
<rect x="30" y="14" width="1" height="1" fill="#5496D7" />
<rect x="31" y="14" width="1" height="1" fill="#4F97E1" />
<rect x="32" y="14" width="1" height="1" fill="#5AA3E9" />
<rect x="33" y="14" width="1" height="1" fill="#5BA4E7" />
<rect x="34" y="14" width="1" height="1" fill="#579CE3" />
<rect x="35" y="14" width="1" height="1" fill="#65A0DB" />
<rect x="36" y="14" width="1" height="1" fill="#7C9DBE" />
<rect x="3" y="15" width="1" height="1" fill="#1FA7E8" />
<rect x="4" y="15" width="1" height="1" fill="#2AAAF3" />
<rect x="5" y="15" width="1" height="1" fill="#1782CA" />
<rect x="6" y="15" width="1" height="1" fill="#278AE3" />
<rect x="7" y="15" width="1" height="1" fill="#2F86DE" />
<rect x="8" y="15" width="1" height="1" fill="#3486D7" />
<rect x="9" y="15" width="1" height="1" fill="#3E84C9" />
<rect x="10" y="15" width="1" height="1" fill="#5B90CB" />
<rect x="11" y="15" width="1" height="1" fill="#99CDFF" />
<rect x="12" y="15" width="1" height="1" fill="#69A0D6" />
<rect x="13" y="15" width="1" height="1" fill="#4B83B7" />
<rect x="14" y="15" width="1" height="1" fill="#588DC7" />
<rect x="15" y="15" width="1" height="1" fill="#6594C3" />
<rect x="16" y="15" width="1" height="1" fill="#A2C4E6" />
<rect x="17" y="15" width="1" height="1" fill="#C1D5E9" />
<rect x="18" y="15" width="1" height="1" fill="#CED5DB" />
<rect x="19" y="15" width="1" height="1" fill="#D5D5D5" />
<rect x="20" y="15" width="1" height="1" fill="#DADDE1" />
<rect x="21" y="15" width="1" height="1" fill="#DADDE1" />
<rect x="22" y="15" width="1" height="1" fill="#DADDE1" />
<rect x="23" y="15" width="1" height="1" fill="#DADDE1" />
<rect x="24" y="15" width="1" height="1" fill="#DADDE1" />
<rect x="25" y="15" width="1" height="1" fill="#DADDE1" />
<rect x="26" y="15" width="1" height="1" fill="#DADDE1" />
<rect x="27" y="15" width="1" height="1" fill="#D1D7E2" />
<rect x="28" y="15" width="1" height="1" fill="#C3DAF6" />
<rect x="29" y="15" width="1" height="1" fill="#6888AB" />
<rect x="30" y="15" width="1" height="1" fill="#5D90CE" />
<rect x="31" y="15" width="1" height="1" fill="#4F93DC" />
<rect x="32" y="15" width="1" height="1" fill="#4A91D8" />
<rect x="33" y="15" width="1" height="1" fill="#4F98DF" />
<rect x="34" y="15" width="1" height="1" fill="#5399E2" />
<rect x="35" y="15" width="1" height="1" fill="#6298D1" />
<rect x="3" y="16" width="1" height="1" fill="#1FA7E8" />
<rect x="4" y="16" width="1" height="1" fill="#2189CF" />
<rect x="5" y="16" width="1" height="1" fill="#1F7DC8" />
<rect x="6" y="16" width="1" height="1" fill="#2889E3" />
<rect x="7" y="16" width="1" height="1" fill="#3486D7" />
<rect x="8" y="16" width="1" height="1" fill="#4183C4" />
<rect x="9" y="16" width="1" height="1" fill="#6EA0D0" />
<rect x="10" y="16" width="1" height="1" fill="#B5DBFF" />
<rect x="11" y="16" width="1" height="1" fill="#B3D5FA" />
<rect x="12" y="16" width="1" height="1" fill="#4B83B7" />
<rect x="13" y="16" width="1" height="1" fill="#658DB2" />
<rect x="14" y="16" width="1" height="1" fill="#95B4D4" />
<rect x="15" y="16" width="1" height="1" fill="#B8DCFE" />
<rect x="16" y="16" width="1" height="1" fill="#DADDE1" />
<rect x="17" y="16" width="1" height="1" fill="#DADDE1" />
<rect x="18" y="16" width="1" height="1" fill="#D7DBD9" />
<rect x="19" y="16" width="1" height="1" fill="#DADDE1" />
<rect x="20" y="16" width="1" height="1" fill="#DADDE1" />
<rect x="21" y="16" width="1" height="1" fill="#DADDE1" />
<rect x="22" y="16" width="1" height="1" fill="#DADDE1" />
<rect x="23" y="16" width="1" height="1" fill="#DADDE1" />
<rect x="24" y="16" width="1" height="1" fill="#DADDE1" />
<rect x="25" y="16" width="1" height="1" fill="#DADDE1" />
<rect x="26" y="16" width="1" height="1" fill="#DADDE1" />
<rect x="27" y="16" width="1" height="1" fill="#DADDE1" />
<rect x="28" y="16" width="1" height="1" fill="#DADDEC" />
<rect x="29" y="16" width="1" height="1" fill="#8FA0B6" />
<rect x="30" y="16" width="1" height="1" fill="#5F81B7" />
<rect x="31" y="16" width="1" height="1" fill="#588FD4" />
<rect x="32" y="16" width="1" height="1" fill="#4D92DD" />
<rect x="33" y="16" width="1" height="1" fill="#428CD8" />
<rect x="34" y="16" width="1" height="1" fill="#4488D2" />
<rect x="35" y="16" width="1" height="1" fill="#699FD9" />
<rect x="1" y="17" width="1" height="1" fill="#1FA7E8" />
<rect x="2" y="17" width="1" height="1" fill="#1FA7E8" />
<rect x="3" y="17" width="1" height="1" fill="#177CC0" />
<rect x="4" y="17" width="1" height="1" fill="#3B84CC" />
<rect x="5" y="17" width="1" height="1" fill="#42ACFF" />
<rect x="6" y="17" width="1" height="1" fill="#2E88DC" />
<rect x="7" y="17" width="1" height="1" fill="#3B84CC" />
<rect x="8" y="17" width="1" height="1" fill="#72ABDD" />
<rect x="9" y="17" width="1" height="1" fill="#BBEBFF" />
<rect x="10" y="17" width="1" height="1" fill="#CBE3F6" />
<rect x="11" y="17" width="1" height="1" fill="#CFE1F1" />
<rect x="12" y="17" width="1" height="1" fill="#C1E5FF" />
<rect x="13" y="17" width="1" height="1" fill="#DADDE1" />
<rect x="14" y="17" width="1" height="1" fill="#DADDE1" />
<rect x="15" y="17" width="1" height="1" fill="#DADDE1" />
<rect x="22" y="17" width="1" height="1" fill="#66A1DC" />
<rect x="23" y="17" width="1" height="1" fill="#66A1DC" />
<rect x="24" y="17" width="1" height="1" fill="#66A1DC" />
<rect x="25" y="17" width="1" height="1" fill="#66A1DC" />
<rect x="26" y="17" width="1" height="1" fill="#66A1DC" />
<rect x="27" y="17" width="1" height="1" fill="#E0E6F2" />
<rect x="28" y="17" width="1" height="1" fill="#ECE3E8" />
<rect x="29" y="17" width="1" height="1" fill="#BFBFCF" />
<rect x="30" y="17" width="1" height="1" fill="#7F85AD" />
<rect x="31" y="17" width="1" height="1" fill="#6882BB" />
<rect x="32" y="17" width="1" height="1" fill="#558FD5" />
<rect x="33" y="17" width="1" height="1" fill="#4B92E0" />
<rect x="34" y="17" width="1" height="1" fill="#488EDB" />
<rect x="35" y="17" width="1" height="1" fill="#689FDB" />
<rect x="0" y="18" width="1" height="1" fill="#1FA7E8" />
<rect x="1" y="18" width="1" height="1" fill="#1FA7E8" />
<rect x="2" y="18" width="1" height="1" fill="#177CC0" />
<rect x="3" y="18" width="1" height="1" fill="#3B84CC" />
<rect x="4" y="18" width="1" height="1" fill="#2889E3" />
<rect x="5" y="18" width="1" height="1" fill="#2889E3" />
<rect x="6" y="18" width="1" height="1" fill="#3589CF" />
<rect x="7" y="18" width="1" height="1" fill="#5394CA" />
<rect x="8" y="18" width="1" height="1" fill="#9DD1F5" />
<rect x="9" y="18" width="1" height="1" fill="#BFE4F6" />
<rect x="10" y="18" width="1" height="1" fill="#DADDE1" />
<rect x="11" y="18" width="1" height="1" fill="#DADDE1" />
<rect x="12" y="18" width="1" height="1" fill="#DADDE1" />
<rect x="22" y="18" width="1" height="1" fill="#627E9C" />
<rect x="23" y="18" width="1" height="1" fill="#6EA0D2" />
<rect x="24" y="18" width="1" height="1" fill="#66A1DC" />
<rect x="25" y="18" width="1" height="1" fill="#66A1DC" />
<rect x="26" y="18" width="1" height="1" fill="#66A1DC" />
<rect x="27" y="18" width="1" height="1" fill="#66A1DC" />
<rect x="28" y="18" width="1" height="1" fill="#DADDE1" />
<rect x="29" y="18" width="1" height="1" fill="#DADDE1" />
<rect x="30" y="18" width="1" height="1" fill="#DCCBD5" />
<rect x="31" y="18" width="1" height="1" fill="#BC9AAD" />
<rect x="32" y="18" width="1" height="1" fill="#847395" />
<rect x="33" y="18" width="1" height="1" fill="#6087C3" />
<rect x="34" y="18" width="1" height="1" fill="#4990DE" />
<rect x="35" y="18" width="1" height="1" fill="#548ECB" />
<rect x="0" y="19" width="1" height="1" fill="#1FA7E8" />
<rect x="1" y="19" width="1" height="1" fill="#177CC0" />
<rect x="2" y="19" width="1" height="1" fill="#3B84CC" />
<rect x="3" y="19" width="1" height="1" fill="#2889E3" />
<rect x="4" y="19" width="1" height="1" fill="#2889E3" />
<rect x="5" y="19" width="1" height="1" fill="#2393D9" />
<rect x="6" y="19" width="1" height="1" fill="#4BACF0" />
<rect x="7" y="19" width="1" height="1" fill="#8EDAFF" />
<rect x="8" y="19" width="1" height="1" fill="#49AFD9" />
<rect x="23" y="19" width="1" height="1" fill="#4F81B2" />
<rect x="24" y="19" width="1" height="1" fill="#6EA0D2" />
<rect x="25" y="19" width="1" height="1" fill="#66A1DC" />
<rect x="26" y="19" width="1" height="1" fill="#7D94AA" />
<rect x="29" y="19" width="1" height="1" fill="#DADDE1" />
<rect x="30" y="19" width="1" height="1" fill="#F2D0D6" />
<rect x="31" y="19" width="1" height="1" fill="#D8A0A6" />
<rect x="32" y="19" width="1" height="1" fill="#C79EB4" />
<rect x="33" y="19" width="1" height="1" fill="#5D7199" />
<rect x="34" y="19" width="1" height="1" fill="#5692D5" />
<rect x="35" y="19" width="1" height="1" fill="#598EC5" />
<rect x="36" y="19" width="1" height="1" fill="#809DBA" />
<rect x="0" y="20" width="1" height="1" fill="#1FA7E8" />
<rect x="1" y="20" width="1" height="1" fill="#3B84CC" />
<rect x="2" y="20" width="1" height="1" fill="#2889E3" />
<rect x="3" y="20" width="1" height="1" fill="#2889E3" />
<rect x="4" y="20" width="1" height="1" fill="#2889E3" />
<rect x="5" y="20" width="1" height="1" fill="#3B84CC" />
<rect x="6" y="20" width="1" height="1" fill="#38B7FE" />
<rect x="7" y="20" width="1" height="1" fill="#49BBF7" />
<rect x="23" y="20" width="1" height="1" fill="#5180B2" />
<rect x="24" y="20" width="1" height="1" fill="#66A1DC" />
<rect x="25" y="20" width="1" height="1" fill="#6EA0D0" />
<rect x="26" y="20" width="1" height="1" fill="#839CB8" />
<rect x="30" y="20" width="1" height="1" fill="#D8A0A6" />
<rect x="31" y="20" width="1" height="1" fill="#C99A9E" />
<rect x="32" y="20" width="1" height="1" fill="#80626A" />
<rect x="33" y="20" width="1" height="1" fill="#9EA3BB" />
<rect x="34" y="20" width="1" height="1" fill="#6188B3" />
<rect x="35" y="20" width="1" height="1" fill="#7196BF" />
<rect x="36" y="20" width="1" height="1" fill="#7B92A8" />
<rect x="0" y="21" width="1" height="1" fill="#1FA7E8" />
<rect x="1" y="21" width="1" height="1" fill="#2889E3" />
<rect x="2" y="21" width="1" height="1" fill="#2889E3" />
<rect x="3" y="21" width="1" height="1" fill="#2889E3" />
<rect x="4" y="21" width="1" height="1" fill="#2889E3" />
<rect x="5" y="21" width="1" height="1" fill="#3B84CC" />
<rect x="6" y="21" width="1" height="1" fill="#3B84CC" />
<rect x="7" y="21" width="1" height="1" fill="#2DAFEC" />
<rect x="23" y="21" width="1" height="1" fill="#5180B2" />
<rect x="24" y="21" width="1" height="1" fill="#65A1DD" />
<rect x="25" y="21" width="1" height="1" fill="#6EA0D2" />
<rect x="30" y="21" width="1" height="1" fill="#D8A0A6" />
<rect x="31" y="21" width="1" height="1" fill="#B7989B" />
<rect x="32" y="21" width="1" height="1" fill="#412B2D" />
<rect x="33" y="21" width="1" height="1" fill="#B1AFB8" />
<rect x="0" y="22" width="1" height="1" fill="#1FA7E8" />
<rect x="1" y="22" width="1" height="1" fill="#3B84CC" />
<rect x="2" y="22" width="1" height="1" fill="#3B84CC" />
<rect x="3" y="22" width="1" height="1" fill="#2889E3" />
<rect x="4" y="22" width="1" height="1" fill="#2889E3" />
<rect x="5" y="22" width="1" height="1" fill="#3B84CC" />
<rect x="6" y="22" width="1" height="1" fill="#3B84CC" />
<rect x="7" y="22" width="1" height="1" fill="#1FA7E8" />
<rect x="23" y="22" width="1" height="1" fill="#5380B1" />
<rect x="24" y="22" width="1" height="1" fill="#6397CD" />
<rect x="25" y="22" width="1" height="1" fill="#749FCA" />
<rect x="31" y="22" width="1" height="1" fill="#DDCACB" />
<rect x="32" y="22" width="1" height="1" fill="#96888A" />
<rect x="33" y="22" width="1" height="1" fill="#C2BFC3" />
<rect x="1" y="23" width="1" height="1" fill="#1FA7E8" />
<rect x="2" y="23" width="1" height="1" fill="#1FA7E8" />
<rect x="3" y="23" width="1" height="1" fill="#3B84CC" />
<rect x="4" y="23" width="1" height="1" fill="#2889E3" />
<rect x="5" y="23" width="1" height="1" fill="#2889E3" />
<rect x="6" y="23" width="1" height="1" fill="#3B84CC" />
<rect x="7" y="23" width="1" height="1" fill="#3B84CC" />
<rect x="8" y="23" width="1" height="1" fill="#1FA7E8" />
<rect x="23" y="23" width="1" height="1" fill="#5180B2" />
<rect x="24" y="23" width="1" height="1" fill="#6D9ED3" />
<rect x="2" y="24" width="1" height="1" fill="#1FA7E8" />
<rect x="3" y="24" width="1" height="1" fill="#1FA7E8" />
<rect x="4" y="24" width="1" height="1" fill="#3B84CC" />
<rect x="5" y="24" width="1" height="1" fill="#2889E3" />
<rect x="6" y="24" width="1" height="1" fill="#2889E3" />
<rect x="7" y="24" width="1" height="1" fill="#3B84CC" />
<rect x="8" y="24" width="1" height="1" fill="#1FA7E8" />
<rect x="23" y="24" width="1" height="1" fill="#699FD9" />
<rect x="4" y="25" width="1" height="1" fill="#1FA7E8" />
<rect x="5" y="25" width="1" height="1" fill="#3B84CC" />
<rect x="6" y="25" width="1" height="1" fill="#3B84CC" />
<rect x="7" y="25" width="1" height="1" fill="#1FA7E8" />
</svg>