<svg xmlns="http://www.w3.org/2000/svg" viewBox="0 0 1108 255" xml:space="preserve"><path fill="#FEFEFF" d="M1 186V1.022c369.266-.008 738.533-.008 1107.9-.008V255.88H1c0-20.63 0-41.294.338-62.348 1.874 1.325 3.083 3.808 5.002 4.628 10.961 4.682 21.949 9.387 33.221 13.22 6.02 2.048 11.233-1.088 14.446-6.79 2.44-4.333 5.23-8.531 7.102-13.101 1.395-3.407 3.488-3.734 6.547-3.722 21.156.085 42.313.03 63.47.053 5.155.005 11.404-1.63 15.166.698 3.915 2.42 5.51 8.68 7.974 13.339 5.152 9.742 10.948 12.05 21.25 8.136 7.397-2.81 14.73-5.785 20.257-7.963 3.394 2.303 5.53 4.992 7.714 5.033 14.79.278 29.591-.004 44.678-.095.473-.053.656-.115 1.196-.14 1.211-2.052 2.522-4.083 2.812-6.25.421-3.157.108-6.412.108-9.625 5.234 6.674 11.21 11.969 19.1 13.205 19.571 3.065 39.587 7.931 57.249-6.846 6.652 5.955 14.318 9.458 23.834 9.575 8.483.027 16.502-.031 24.774-.024.423.022.592-.02 1.217.065 16.15.068 31.843.007 47.85-.043 1.035-.62 1.756-1.252 2.58-2.154.094-.463.086-.656.248-1.208.169-24.604.169-48.849.169-73.255h8.827v5.643c0 21.65-.022 43.299.031 64.948.006 2.305-.913 5.286 3.149 5.954.486.122.69.121 1.246.293 13.674.2 26.998.276 40.321.233 6.894-.022 7.556-.793 7.558-7.848.005-21.32-.007-42.639.01-63.958 0-1.752.166-3.504.252-5.2h7.525c0 3.631-.058 6.947.01 10.261.26 12.633.047 25.302.978 37.886 1.116 15.091 14.016 27.746 28.26 28.6 12.881.175 25.32.248 37.759.192 12.252-.055 24.505-.24 37.148-.359 4.034-.52 3.471-3.335 3.472-5.771.015-40.434-.074-80.868.121-121.301.025-5.08-2.366-6.426-6.508-6.445-13.81-.063-27.621-.046-41.432-.02-4.185.009-6.086 1.735-6.04 6.378.216 21.962.093 43.927.091 65.891v5.972c-1.58-.818-2.372-1.23-3.126-2.104-.025-15.828-.089-31.191-.094-46.961-.667-3.645-1.032-7.019-2.188-10.095-3.481-9.265-9.768-17.535-19.637-17.772-16.67-.4-34.475-5.412-49.473 7.295-7.284-7.108-16.137-8.517-25.527-8.322-9.512.197-19.027.393-28.54.378-13.485-.021-26.97-.26-40.456-.36-6.68-.048-7.622.957-7.623 7.88-.004 21.999-.02 43.998.036 65.997.008 3.192-.121 5.824-4.796 3.96v-4.926c0-21.832.001-43.665-.003-65.497 0-7.101-.805-7.902-8.086-7.911-12-.016-24-.02-35.999.005-7.398.016-8.075.71-8.076 7.896 0 22-.005 43.998-.008 65.997v5.248h-18.502v-5.717c0-22.166.003-44.332-.002-66.498 0-6.02-.839-6.9-6.913-6.919-12-.036-24.002-.149-35.997.072-3.814.07-5.268-.791-5.154-4.936.3-10.825.188-21.665.017-32.495-.026-1.612-1.262-3.206-2.2-5.143-15.566-.416-30.869-.549-46.17-.494-1.41.005-2.814 1.204-4.411 2.221-.37 2.167-.702 3.962-.703 5.757-.032 40.638-.025 81.277-.041 121.915-.001 1.66-.156 3.32-.239 4.979-7.15-11.274-13.23-22.624-19.29-33.985-16.601-31.123-33.192-62.253-49.794-93.376-2.094-3.924-5.18-6.512-9.804-6.609-8.807-.185-17.62-.457-26.424-.297-5.23.095-9.423 2.312-12.08 7.322a41617.1 41617.1 0 0 1-67.924 127.524C9.153 172.565 4.963 179.222 1 186M552.862 68.851c.7.254 1.398.507 3 1.052 15.373-.04 30.745-.08 46.869-.058 1.01-1.83 2.809-3.624 2.89-5.494.336-7.641.226-15.306.11-22.96-.047-3.085-.532-6.163-.781-9.321 0 0-.084-.009-.343-.745-1.904-.408-3.805-1.152-5.713-1.17-11.82-.11-23.642.012-35.462-.076-12.796-.094-11.527.238-11.387 11.39.112 8.93.422 17.856.78 26.853 0 0-.149-.033.037.53m65.024 138.18c8.434.088 16.87.276 25.303.234 7.258-.036 14.516-.335 22.559-.468.745-1.813 2.113-3.618 2.137-5.44.18-13.98.1-27.964.1-41.947v-4.97c14.411 0 28.05-.002 41.69.001 14.304.003 27.081-3.277 35.253-16.425 1.428-2.298 2.794-4.635 4.19-6.954l.973.299v4.71c0 21.808.014 43.614-.014 65.42-.004 2.84-.046 5.55 4.827 5.729 15.027-.115 30.054-.23 45.757-.313a92.011 92.011 0 0 1 2.346-1.939s-.037-.06.47-.698v-61.305h31.251v5.825c.002 17.315-.03 34.63.045 51.946.01 2.467-.817 5.658 4.11 6.471 15.365-.11 30.73-.222 46.855-.312.964-1.829 2.616-3.606 2.76-5.497.387-5.105.132-10.26.132-15.395 7.433 10.377 14.602 19.936 29.261 21.057 21.56.079 43.12.18 64.68.21 3.136.005 6.273-.336 10.238-.394 3.198-.745 6.689-.904 9.545-2.332 15.395-7.698 22.044-21.271 24.605-38.464.074-9.793.242-19.586.205-29.379-.084-22.567-.268-45.133-.301-68.507-1.676-12.872-6.514-24.053-17.889-31.244-8.389-5.303-18.08-6.511-27.704-6.687-18.159-.332-36.33-.222-54.492-.015-8.43.096-16.26 2.352-23.14 7.693-7.19 5.58-11.681 12.94-15.469 22.031-3.562-15.006-11.056-25.558-26.85-29.368-.487-.107-.974-.308-1.461-.31-34.995-.07-69.99-.137-104.986-.156-3.478-.002-5.013 1.88-4.888 5.432.164 4.66.098 9.333-.047 13.995-.015.478-1.245.918-2.022.68-5.867-10.762-14.396-17.78-27.583-19.672-2.153-.156-4.306-.445-6.459-.447-30.807-.03-61.615-.03-92.422-.018-6.783.003-7.381.637-7.382 7.467-.002 38.3 0 76.602 0 114.903 0 16.32-.086 32.64.132 48.957.024 1.773 1.814 3.524 3.685 5.596m466.016-32.222c-.139 9.379-.595 18.772-.155 28.123.09 1.92 3.368 5.004 5.462 5.266 5.825.727 11.8.252 17.629.252 1.54-10.285 1.502-10.33-8.001-10.314-1.66.003-3.37.249-4.959-.083-1.04-.217-2.73-1.288-2.718-1.95.105-5.713.53-11.42 1.789-17.084h14.182v-10.272c-5.73 0-11.25-.514-16.59.242-2.281.322-4.187 3.294-6.639 5.82m-26.69-.055v33.539h22.478v-10.187c-3.142 0-5.981-.263-8.752.062-4.086.48-5.138-1.132-4.998-5.052.289-8.073.087-16.163.087-24.611l-8.812.398c0 1.97 0 3.446-.003 5.85m-2.8 33.01.439-9.797h-14.29V168.88h-8.344v39.416c7.264 0 14.373 0 22.195-.532z"/><path fill="#0A0E77" d="m548.915 149.977 3.165 1.64v-5.972c.002-21.964.125-43.929-.091-65.89-.046-4.644 1.855-6.37 6.04-6.378 13.81-.027 27.622-.044 41.432.02 4.142.018 6.533 1.364 6.508 6.444-.195 40.433-.106 80.867-.12 121.3-.002 2.437.56 5.252-3.78 5.492-1.343-.404-1.99-.617-2.637-.618-22.902-.018-45.803-.03-68.705.021-1.234.003-2.468.577-3.701.886-13.801-.696-26.7-13.35-27.817-28.442-.931-12.584-.718-25.253-.978-37.886-.068-3.314-.01-6.63-.01-10.26h-7.525c-.086 1.695-.251 3.447-.253 5.2-.016 21.318-.004 42.638-.009 63.957-.002 7.055-.664 7.826-7.558 7.848a2076.68 2076.68 0 0 1-39.866-.245c13.292-.186 26.479-.186 39.666-.186-9.79-.911-19.57-.977-29.348-.88-4.102.042-8.2.43-12.3.66-3.781-.543-2.862-3.524-2.868-5.83-.053-21.648-.031-43.297-.03-64.947v-5.643h-8.828c0 24.406 0 48.65-.2 72.795-.2-23.972-.2-47.842-.2-71.713-.9 23.79-.908 47.575-.868 71.36.001.764.488 1.528.748 2.291-.72.632-1.442 1.264-2.79 1.612-15.823-.384-31.02-.493-46.218-.551-.59-.002-1.183.48-1.775.737-.169.043-.338.086-1.088-.188-8.691-.148-16.801.021-24.911.19-9.052-.031-16.718-3.534-23.37-9.489-17.662 14.777-37.678 9.911-57.248 6.846-7.892-1.236-13.867-6.531-19.101-13.205 0 3.213.313 6.468-.108 9.625-.29 2.167-1.6 4.198-3.143 6-14.789-.288-28.89-.288-42.992-.288 0 .223-.002.446-.003.668h41.84c-14.797.101-29.597.383-44.388.105-2.185-.04-4.32-2.73-7.714-5.033-5.526 2.178-12.86 5.153-20.257 7.963-10.302 3.915-16.098 1.606-21.25-8.136-2.464-4.659-4.06-10.919-7.974-13.34-3.762-2.326-10.01-.692-15.167-.697-21.156-.024-42.313.032-63.47-.053-3.058-.012-5.151.315-6.546 3.722-1.872 4.57-4.661 8.768-7.102 13.1-3.213 5.703-8.427 8.839-14.446 6.792-11.272-3.834-22.26-8.539-33.221-13.221-1.92-.82-3.128-3.303-5.002-5.089C1 190.958 1 188.917 1 186.438c3.963-7.216 8.152-13.873 11.853-20.792A41617.1 41617.1 0 0 0 80.776 38.122c2.658-5.01 6.85-7.227 12.081-7.322 8.804-.16 17.617.112 26.424.297 4.624.097 7.71 2.685 9.804 6.61 16.602 31.122 33.193 62.252 49.794 93.375 6.06 11.361 12.14 22.711 19.29 33.985.083-1.66.238-3.32.239-4.979.016-40.638.009-81.277.04-121.915.002-1.795.334-3.59 1.142-5.764 15.488-.412 30.346-.416 45.204-.517 1.736-.012 3.468-.566 5.201-.868.676 1.602 1.912 3.196 1.938 4.808.171 10.83.282 21.67-.017 32.495-.114 4.145 1.34 5.007 5.154 4.936 11.995-.221 23.997-.108 35.997-.072 6.074.019 6.912.9 6.913 6.92.005 22.165.002 44.33.002 66.497v5.717h18.502v-5.248c.003-21.999.007-43.998.008-65.997 0-7.187.678-7.88 8.076-7.896 12-.025 24-.02 35.999-.005 7.281.009 8.085.81 8.086 7.911.004 21.832.003 43.665.003 65.497v4.927c4.675 1.863 4.804-.769 4.796-3.961-.055-21.999-.04-43.998-.036-65.997.001-6.923.942-7.928 7.623-7.88 13.486.1 26.97.339 40.456.36 9.513.015 19.028-.18 28.54-.378 9.39-.195 18.243 1.214 25.527 8.322 14.998-12.707 32.803-7.695 49.473-7.295 9.869.237 16.156 8.507 19.637 17.772 1.156 3.076 1.521 6.45 1.935 10.428-.395 15.62-.487 30.5-.522 45.379-.001.57.541 1.142.83 1.713m-127.203 50.447s-.079-.233.204-1.157c.084-25.055.169-50.11.872-75.278.414.043.827.085 1.452.535.204.24.458.404 1.35 1.08 4.47.134 8.954.549 13.405.316 3.918-.204 5.124 1.026 5.088 5.027-.189 21.289-.111 42.58-.045 63.87.005 1.726.616 3.451 1.423 5.198 0 0 .476.01.582-.118 0 0 .159.049.02.531.018.166.036.333.518 1.186 9.097.123 18.193.32 27.29.326 2.733.002 5.467-.523 8.589-.999 0 0 .413-.13.93.236.211-.898.607-1.796.608-2.694.014-24.54-.011-49.08.01-73.984 0 0 .052-.364.975-.476 5.671.038 11.343.075 17.14.75.996.022 1.991.044 3.681.604.096 14.982-.057 29.973.423 44.944.167 5.215 1.04 10.744 3.069 15.5 5.985 14.038 24.5 20.147 40.354 13.981V158.08c-8.202-.893-8.202-.893-8.202-8.976 0-13.327.117-26.656-.07-39.98-.06-4.296-.381-8.733-1.531-12.84-2.655-9.477-9.589-16.49-20.483-16.165-4.827.143-9.676.265-14.49-.02-11.24-.668-20.394 2.396-25.56 13.295-.113.236-.544.322-1.06.606-1.422-1.752-2.869-3.546-4.327-5.33-3.965-4.847-9.012-7.887-15.268-8.452-3.636-.328-7.33.063-10.988-.105-10.24-.472-19.765.567-25.615 11.043l-.647-10.464c-12.887 0-25.302 0-38.071-.018 0 0-.338.103-.965.023-.12.467-.345.935-.345 1.403-.017 38.075-.024 76.151.022 114.227.001 1.237.565 2.473 1.152 4.15l1.422 1.212c11.584.093 23.168.212 34.753.224.778 0 1.558-.81 2.335-1.489m176.244.032c-.026-.183-.051-.365.065-1.464V80.302h-38.137v5.651c-.001 26.665-.027 53.33.006 79.996.014 11.325.15 22.65.137 34.52.043.178.086.357.627 1.176 11.863.1 23.727.212 35.59.259.534.002 1.07-.59 1.712-1.448M362.45 79.981s-.477.108-1.389-.112h-35.056c0 26.549 0 52.252-.932 78.094h-30.92l-.425-8.825-.382.01c-.278 2.927-.557 5.855-1.09 7.887V80.06c-12.658 0-24.418 0-36.715-.11-.18.03-.36.061-1.174.634-.1.315-.286.63-.286.944-.028 28.01-.046 56.02-.012 84.03 0 .506.649 1.012 1.333 1.576 0 0 .344.015.415.888.117 1.991.171 3.99.361 5.974 1.36 14.185 8.06 23.075 21.318 24.933 10.935 1.533 22.191.963 33.302.887 2.219-.015 4.656-1.706 6.587-3.16 4.058-3.056 7.847-6.469 11.505-9.533 4.145 3.585 7.79 7.96 12.439 10.497 8.837 4.822 18.832 2.887 28.404 2.887.723 0 2.062-2.306 2.074-3.55a986.03 986.03 0 0 0-.367-38.616l-7.468-.883v-5.86c.002-22.142.026-44.284-.04-66.427-.005-1.694-.655-3.386-1.482-5.19M244.618 200.516c.126-.48.361-.959.362-1.438.029-52.969.022-105.938.093-158.907.004-3.429-1.588-4.184-4.624-4.146-9.493.117-18.999.302-28.479-.066-4.763-.185-6.165 1.145-6.149 6.027.175 51.47.104 102.94.114 154.41 0 1.494.15 2.988.659 5.19 10.414.133 20.828.314 31.243.358 2.07.009 4.142-.508 6.78-1.428M58.962 182.022c31.036.005 62.072.01 93.525.539 3.148 5.851 6.332 11.683 9.431 17.56 2.909 5.513 3.992 6.24 10.07 4.023 8.577-3.127 17.036-6.603 25.427-10.205 3.62-1.555 4.463-4.221 2.372-8.051-8.677-15.893-17.152-31.896-25.665-47.878-16.952-31.826-33.927-63.641-50.757-95.533-1.955-3.704-4.463-5.468-8.612-5.372-5.661.13-11.344.275-16.99-.058-5.677-.335-9.013 1.764-11.74 6.97-15.547 29.661-31.478 59.121-47.263 88.657-9.37 17.531-18.738 35.063-28.053 52.623-2.762 5.207-2.179 6.853 3.237 9.176 7.941 3.406 15.881 6.829 23.938 9.943 4.048 1.564 7.657 1.047 9.958-3.534 3.204-6.378 6.775-12.571 11.122-18.86m25.54 3.974H65.322l.027.679h79.51v-.679H84.5M424 192.42v-47.2l-.667.011v55.532l.667.009v-8.352m.002-59.43v-4.795c-.85 2.135-.853 4.244-.823 6.353 0 .04.551.144.57.101.123-.29.172-.614.253-1.658z"/><path fill="#0A0A7A" d="M838.013 206.833c-4.057-.438-3.23-3.63-3.24-6.096-.074-17.315-.043-34.63-.045-51.946v-5.825h-31.25c0 20.475 0 40.89-.269 61.162-.268-20.438-.268-40.734-.268-61.03-.76.705-.934 1.442-.935 2.179-.014 18.666-.027 37.332.033 55.999.004 1.236.586 2.471.899 3.707-.759.642-1.518 1.284-2.925 1.635-15.187-.385-29.726-.49-44.264-.538-.575-.002-1.152.527-1.728.81-3.99.152-3.948-2.558-3.944-5.397.028-21.807.015-43.613.014-65.42v-4.711l-.974-.299c-1.395 2.319-2.76 4.656-4.19 6.954-8.17 13.148-20.948 16.428-35.253 16.425-13.639-.003-27.278 0-41.689 0v4.969c0 13.983.08 27.967-.1 41.947-.024 1.822-1.392 3.627-2.863 5.177-16.452-.356-32.178-.448-48.233-.755-.807-2.596-1.701-4.976-1.705-7.358-.08-49.269-.06-98.538-.056-147.807 0-4.255-.097-8.516.094-12.764.172-3.818 1.366-6.087 6.236-6.048 31.457.253 62.917.141 94.376.091 1.747-.002 3.494-.52 5.241-.798 12.544 1.37 21.073 8.388 26.988 19.861.45 1.319.853 1.926 1.255 2.533.587-.872 1.605-1.706 1.686-2.623.363-4.115.681-8.257.6-12.382-.125-6.52-.24-6.55 6.427-6.55 32.93-.004 65.859.01 98.788-.039 1.75-.002 3.5-.507 5.25-.777 15.144 3.296 22.638 13.848 26.2 28.854 3.788-9.091 8.278-16.45 15.469-22.031 6.88-5.34 14.71-7.597 23.14-7.693 18.162-.207 36.333-.317 54.492.015 9.623.176 19.315 1.384 27.704 6.687 11.375 7.191 16.213 18.372 17.595 31.985-.386 1.393-.558 2.046-.558 2.698-.016 30.528-.025 61.056.015 91.583.001 1.263.485 2.526.744 3.788-2.372 16.269-9.02 29.842-24.416 37.54-2.856 1.428-6.347 1.587-10.295 2.031-24.931-.383-49.113-.471-73.294-.516-.595-.001-1.19.474-1.786.727-13.747-.847-20.916-10.406-28.349-20.783 0 5.135.255 10.29-.132 15.395-.144 1.891-1.796 3.668-3.45 5.213-15.553-.382-30.415-.488-45.277-.542-.585-.003-1.172.497-1.758.763m181.674-136.705c-.174-.983-.377-1.961-.517-2.95-2.461-17.374-11.924-28.216-29.415-29.295-22.719-1.403-45.576-.806-68.367-.54-3.67.042-7.712 2.252-10.89 4.457-13.316 9.239-17.394 23.174-17.616 38.345-.366 24.976-.249 49.962.014 74.94.075 7.118.96 14.291 2.17 21.32 2.456 14.273 13.658 24.477 26.712 24.547 21.65.116 43.301.11 64.95-.039 5.826-.04 11.745-.606 16.502-4.6 9.912-8.322 16.318-19.12 16.575-31.876.626-31.127.107-62.276-.117-94.309m-138.795 3.423c-.266-4.48-.163-9.017-.867-13.426-2.153-13.482-12.288-23.804-27.016-23.546-29.985.524-59.986.184-89.98.104-3.247-.008-5.202.205-5.192 4.414.127 51.823.11 103.648.01 155.472-.007 3.678 1.46 4.5 4.75 4.448 9.164-.143 18.337-.25 27.492.048 4.43.144 6.061-.956 5.982-5.757-.293-17.825-.125-35.658-.11-53.488.002-1.767.149-3.534.248-5.755 13.948 0 27.414.186 40.87-.106 4.432-.095 5.674 1.198 5.618 5.591-.232 17.994-.004 35.993-.175 53.989-.037 3.895.696 5.683 5.133 5.533 9.487-.322 18.997-.244 28.49-.019 3.745.09 4.874-1.147 4.83-4.861-.181-15.162.427-30.352-.324-45.479-.317-6.403-2.52-13.028-5.27-18.895-2.159-4.609-6.473-8.208-10.244-12.755.642-.48 1.539-1.19 2.475-1.845 8.241-5.759 12.231-13.98 13.031-23.7.518-6.291.195-12.652.249-19.967m-135.645-4.104c-1.167-19.371-13-33.62-35.76-32.916-26.96.834-53.964.197-80.948.197h-6.046c-.202 1.69-.453 2.812-.454 3.934-.022 51.97.01 103.94-.093 155.911-.008 3.641 1.352 4.513 4.69 4.46 9.991-.158 19.987-.041 29.982-.083 1.094-.004 2.187-.34 3.8-.61v-52.338h6.001c14.325-.003 28.651.093 42.975-.07 4.299-.048 8.686-.389 12.865-1.337 11.17-2.534 21.819-15.197 22.646-28.874.953-15.743.34-31.581.342-48.274M755.995 97.5v101.179l.705-.006V37.125l-.705-.002V97.5m120.014 22.087 8.772 12.178v-22.357c-3.034 3.46-5.712 6.516-8.772 10.18z"/><path fill="#090B7B" d="M601.98 69.783c-15.373.04-30.745.08-46.714-.268-1.261-.667-1.925-.947-2.59-1.226 0 0 .148.033.186-.481.07-10.496.105-20.479.131-30.462.009-3.151.64-5.488 4.673-5.45 15.733.15 31.467.125 47.2.165 0 0 .084.009.002.322-.113.498-.144.683-.418 1.168-.313 4.414-.515 8.531-.423 12.642.13 5.862.478 11.72.757 17.936-.919 2.122-1.861 3.888-2.804 5.654m-41.399-4.206c11.963.14 23.926.283 35.89.376.176.002.357-.625.542-1.379 0 0 .003-.42.673-.982.035-8.495.07-16.99.033-26.262-3.37-.327-6.738-.887-10.113-.936-9.096-.132-18.196-.045-27.482-.045 0 9.363 0 17.99-.133 27.081 0 0 .063.479.033 1.003-.002.176-.003.35.557 1.144z"/><path fill="#070679" d="M1092.02 178.976c-.33 5.708-.755 11.415-.86 17.128-.012.662 1.679 1.733 2.718 1.95 1.59.332 3.3.086 4.959.083 9.503-.017 9.54.029 8 10.314-5.828 0-11.803.475-17.628-.252-2.094-.262-5.371-3.345-5.462-5.266-.44-9.35.016-18.744.542-28.319.614.045.825.307 1.082.51.066.052.398-.066.408-.136.722-4.928 4.275-5.15 8.146-5.008 2.827.104 5.669.158 8.489-.016 2.962-.183 3.639 1.228 3.662 3.892.024 2.833-.616 4.28-3.863 4.236-3.393-.044-6.795.562-10.193.884z"/><path fill="#10107D" d="m1057.214 174.29.001-5.386 8.812-.398c0 8.448.202 16.538-.087 24.611-.14 3.92.912 5.532 4.998 5.052 2.77-.325 5.61-.062 8.752-.062v10.187h-22.478c0-11.366 0-22.452.002-34.003z"/><path fill="#12117E" d="M1054.056 208.03c-7.466.266-14.575.266-21.84.266V168.88h8.344v29.087h14.29c-.162 3.644-.3 6.72-.794 10.063z"/><path fill="#252486" d="M720.653 30.835c-1.425.54-3.172 1.057-4.92 1.06-31.458.05-62.918.16-94.375-.092-4.87-.039-6.064 2.23-6.236 6.048-.191 4.248-.094 8.509-.094 12.764-.005 49.269-.024 98.538.056 147.807.004 2.382.898 4.762 1.684 7.542.307.398.217.757.217.757-.97-1.761-2.76-3.512-2.784-5.285-.218-16.317-.131-32.638-.131-48.957-.001-38.301-.003-76.602 0-114.903 0-6.83.598-7.464 7.381-7.467 30.807-.012 61.615-.013 92.422.018 2.153.002 4.306.291 6.78.708z"/><path fill="#262387" d="M861.644 30.862c-1.425.527-3.175 1.032-4.925 1.034-32.93.048-65.859.035-98.788.038-6.668.001-6.552.031-6.426 6.551.08 4.125-.238 8.267-.601 12.382-.081.917-1.1 1.751-1.686 2.623-.402-.607-.805-1.214-1.2-2.185.674-.821 1.904-1.261 1.919-1.74.145-4.661.211-9.334.047-13.994-.125-3.553 1.41-5.434 4.888-5.432 34.996.019 69.99.087 104.986.157.487 0 .974.202 1.786.566z"/><path fill="#252284" d="M604.737 31.693c-15.604.328-31.338.353-47.07.204-4.033-.039-4.665 2.298-4.674 5.45-.026 9.982-.062 19.965-.199 30.427-.327-8.449-.637-17.376-.75-26.305-.14-11.152-1.408-11.484 11.388-11.39 11.82.088 23.642-.033 35.462.076 1.908.018 3.809.762 5.843 1.538z"/><path fill="#070858" d="M1026.864 166.543c-.353-.8-.837-2.063-.838-3.326-.04-30.527-.03-61.055-.015-91.583 0-.652.172-1.305.503-2.295.382 22.23.566 44.796.65 67.363.037 9.793-.13 19.586-.3 29.841z"/><path fill="#191764" d="M1092.485 178.998c2.933-.344 6.335-.95 9.728-.906 3.247.043 3.887-1.403 3.863-4.236-.023-2.664-.7-4.075-3.662-3.892-2.82.174-5.662.12-8.49.016-3.87-.143-7.423.08-8.145 5.008-.01.07-.342.188-.408.137-.257-.204-.468-.466-.894-.89 1.877-1.951 3.783-4.923 6.064-5.245 5.34-.756 10.86-.242 16.59-.242v10.272c-4.696 0-9.44 0-14.646-.022z"/><path fill="#07085A" d="M917.435 206.924c.14-.39.735-.865 1.33-.864 24.181.045 48.363.133 72.88.454-2.801.42-5.938.762-9.074.757-21.56-.03-43.12-.131-65.136-.347z"/><path fill="#060658" d="M527.469 207.08c.79-.467 2.024-1.04 3.258-1.044 22.902-.052 45.803-.039 68.705-.02.647 0 1.294.213 2.247.607-11.946.408-24.199.594-36.451.65-12.439.055-24.878-.018-37.76-.193z"/><path fill="#05065A" d="M428.884 204.73c-.362-.492-.849-1.256-.85-2.02-.04-23.785-.033-47.57.869-71.36 0 23.87 0 47.741.03 72.072.038.653.046.846-.049 1.309z"/><path fill="#272485" d="M249.732 30.69c-1.47.636-3.202 1.19-4.938 1.202-14.858.101-29.716.105-45.013.145.968-.638 2.373-1.837 3.781-1.842 15.302-.055 30.605.078 46.17.494z"/><path fill="#0A0758" d="M378.455 206.928c.136-.386.729-.868 1.32-.866 15.196.058 30.394.167 45.904.54-15.38.333-31.075.394-47.224.326z"/><path fill="#080559" d="M617.436 206.876c-.45-.155-.361-.514-.34-.698 15.748-.091 31.474.001 47.533.332-6.924.421-14.182.72-21.44.756-8.434.042-16.869-.146-25.753-.39z"/><path fill="#0B0750" d="M548.954 149.513c-.328-.107-.87-.679-.869-1.25.035-14.879.127-29.758.462-44.97.318 15.029.382 30.392.407 46.22z"/><path fill="#09085A" d="M838.448 207.02c.15-.453.738-.953 1.323-.95 14.862.054 29.724.16 44.897.532-15.055.384-30.42.495-46.22.419z"/><path fill="#080758" d="M754.462 207.055c.135-.448.712-.977 1.287-.975 14.538.048 29.077.153 43.926.522-14.717.389-29.744.504-45.213.453z"/><path fill="#090657" d="M248.165 206.968c-14.236-.01-28.183-.01-42.13-.01l.003-.668c14.102 0 28.203 0 42.635.25.148.313-.035.375-.508.428z"/><path fill="#09085C" d="M441.309 206.813c3.819-.355 7.917-.743 12.019-.784 9.779-.098 19.559-.032 29.348.88-13.187 0-26.374 0-40.016.012-.66.013-.865.014-1.351-.108z"/><path fill="#252284" d="M602.355 69.814c.568-1.797 1.51-3.563 2.47-6.129-.033-10.677-.083-20.555-.132-30.433.031-.186.062-.371.157-.831.35 2.807.834 5.885.881 8.97.116 7.654.226 15.319-.11 22.96-.081 1.87-1.88 3.664-3.266 5.463z"/><path fill="#0A0758" d="M352.464 206.887c7.646-.255 15.756-.424 24.193-.342-7.691.31-15.71.369-24.193.342z"/><path fill="#252284" d="M552.77 68.57c.57-.002 1.235.278 2.044.8-.554-.012-1.253-.265-2.045-.8z"/><path fill="#74F84D" d="M58.028 182.038c-3.414 6.273-6.985 12.466-10.189 18.844-2.3 4.58-5.91 5.098-9.958 3.534-8.057-3.114-15.997-6.537-23.938-9.943-5.416-2.323-5.999-3.97-3.237-9.176 9.315-17.56 18.683-35.092 28.053-52.623 15.785-29.536 31.716-58.996 47.262-88.657 2.728-5.206 6.064-7.305 11.742-6.97 5.645.333 11.328.188 16.99.058 4.148-.096 6.656 1.668 8.611 5.372 16.83 31.892 33.805 63.707 50.757 95.533 8.513 15.982 16.988 31.985 25.665 47.878 2.09 3.83 1.249 6.496-2.372 8.05-8.39 3.603-16.85 7.079-25.427 10.206-6.078 2.216-7.161 1.49-10.07-4.024-3.1-5.876-6.283-11.708-9.645-18.073-.238-.68-.261-.846-.562-1.326-.92-.45-1.563-.707-2.206-.707-29.286-.017-58.573-.025-87.86.036-1.202.002-2.403.67-3.625 1.269-.02.24.009.72.009.72m21.338-40.536-1.336 3.54h54.39c-1.002-1.738-1.693-2.937-2.467-4.845L104.94 93.35c-8.731 16.647-16.874 32.17-25.574 48.153z"/><path fill="#74F94C" d="M501.998 124.135c-5.672-.037-11.344-.074-17.893-.048-1.29 1.695-2.055 3.326-2.061 4.958-.08 21.648-.055 43.297-.055 64.945v5.956h-35.787s-.16-.049-.16-.452v-75.377h-22.013c-.414-.043-.827-.085-1.832-.118-.78.01-.97.012-1.474.292-.45 2.086-.7 3.894-.704 5.702-.045 23.302-.054 46.604-.537 69.945-11.817.086-23.17.134-34.833-.115-.42-1.949-.626-3.6-.627-5.25-.02-36.14-.011-72.278-.03-108.416 0-1.822-.196-3.643-.301-5.465h37.718l.647 10.464c5.85-10.476 15.375-11.515 25.615-11.043 3.657.168 7.352-.223 10.988.105 6.256.565 11.303 3.605 15.268 8.453 1.458 1.783 2.905 3.577 4.328 5.33.515-.285.946-.37 1.058-.607 5.167-10.899 14.321-13.963 25.561-13.296 4.814.286 9.663.164 14.49.02 10.894-.323 17.828 6.69 20.483 16.166 1.15 4.107 1.47 8.544 1.53 12.84.188 13.324.07 26.653.071 39.98 0 8.083 0 8.083 8.202 8.976v41.722c-15.855 6.166-34.369.057-40.354-13.98-2.028-4.757-2.902-10.286-3.07-15.501-.479-14.97-.326-29.962-.953-45.513-1.446-.603-2.36-.638-3.275-.673zM256.078 80.06h36.179c0 25.7 0 51.338.049 77.606.049.63.05 1.031.184 1.417 10.545.57 20.956.775 31.367.898.702.008 1.41-.605 2.19-1.234.035-.511-.004-.717-.042-.923V79.87c12 0 23.528 0 35.514.572.466 24.479.456 48.387.52 72.295.004 1.733.538 3.465 1.14 5.455 3.081.457 5.849.657 8.616.858.036 12.636.132 25.273.012 37.908-.012 1.244-1.351 3.55-2.074 3.55-9.572 0-19.567 1.935-28.404-2.887-4.649-2.537-8.294-6.912-12.439-10.497-3.658 3.064-7.447 6.477-11.505 9.532-1.931 1.455-4.368 3.146-6.587 3.16-11.11.077-22.367.647-33.302-.886-13.258-1.858-19.958-10.748-21.318-24.933-.19-1.985-.244-3.983-.283-6.879.114-29.622.148-58.34.183-87.057z"/><path fill="#74FA4C" d="M560.121 199.925c-.08-11.325-.217-22.65-.23-33.976-.034-26.665-.008-53.33-.007-79.996v-5.651h38.137c0 39.533 0 79.112-.531 119.17-12.81.472-25.09.463-37.369.453z"/><path fill="#4E8B74" d="M206.165 200.878c-.08-1.494-.23-2.988-.23-4.482-.01-51.47.061-102.94-.114-154.41-.016-4.882 1.386-6.212 6.15-6.027 9.48.368 18.985.183 28.478.066 3.036-.038 4.628.717 4.624 4.146-.07 52.97-.064 105.938-.093 158.907 0 .48-.236.958-1.12 1.73-13.07.219-25.383.145-37.695.07m31.242-.78h6.567v-6.306l-.006-121.355c0-10.155-.052-20.31.035-30.464.022-2.62-.308-4.813-3.486-4.831-9.82-.057-19.64-.076-29.458.058-2.826.038-4.307 1.42-4.301 4.733.095 51.272.094 102.544-.01 153.816-.007 3.663 1.404 4.477 4.71 4.408 8.319-.173 16.645-.058 25.949-.058z"/><path fill="#669A9A" d="M383.514 80.683c.282 1.83.477 3.652.478 5.474.019 36.138.01 72.277.03 108.415 0 1.651.207 3.302.645 5.438.326.485.357.861.1.932l-.775.211c-.263-.225-.527-.45-.9-1.37-.104-40.13-.098-79.568-.092-119.006 0 0 .338-.103.514-.094z"/><path fill="#001D1E" d="M382.686 80.737c.308 39.478.302 78.915.264 118.826-.335-.763-.899-1.999-.9-3.236-.046-38.076-.039-76.152-.022-114.227 0-.468.225-.936.658-1.363z"/><path fill="#5F9884" d="M446.133 200.187c11.71-.241 23.351-.241 35.856-.241v-5.956c0-21.648-.026-43.297.055-64.945.006-1.632.77-3.263 1.6-4.902.416-.008.365.356.012.819-.462 2.28-.661 4.098-.665 5.916-.056 23.311-.083 46.622-.118 69.933 0 0-.413.13-1.083.19-12.338.015-24.006-.03-35.674-.074a2.716 2.716 0 0 1 .017-.74z"/><path fill="#10217A" d="M424.135 124.32c7.009-.203 14.124-.203 21.906-.203 0 25.135 0 50.054-.052 75.441-.051.468-.528.457-.763-.022-.232-23.215-.376-45.954-.108-68.688.058-4.937-1.49-6.331-6.182-5.929-4.613.396-9.287.092-13.934.095-.304-.086-.558-.25-.867-.694z"/><path fill="#1E7F17" d="M58.494 182.03c-.466.008-.496-.472-.01-.73 31.49-.26 62.497-.262 93.503-.264.024.165.047.331.076.748-31.03.247-62.066.243-93.569.246z"/><path fill="#000963" d="M425.296 125.31c4.353-.3 9.027.005 13.64-.39 4.693-.403 6.24.99 6.182 5.928-.268 22.734-.124 45.473-.13 68.678-.334-1.258-.945-2.983-.95-4.71-.066-21.29-.144-42.58.045-63.869.036-4.001-1.17-5.231-5.088-5.027-4.45.233-8.935-.182-13.699-.61z"/><path fill="#001C27" d="M255.063 167.076c-.345-.506-.993-1.012-.994-1.518-.034-28.01-.016-56.02.012-84.03 0-.315.187-.63.608-.75.34 28.894.357 57.596.374 86.298z"/><path fill="#054420" d="M371.618 158.695c-2.59.153-5.358-.047-8.393-.965-.279-26.357-.289-51.998-.299-77.638.35 1.693 1.001 3.385 1.006 5.08.066 22.142.042 44.284.04 66.426v5.86c2.673.316 5.07.6 7.646 1.237z"/><path fill="#5A8A95" d="M255.233 167.105c-.187-28.731-.205-57.433-.227-86.599.175-.495.355-.526.804-.501.233 28.773.199 57.49.05 86.676-.114.468-.458.453-.627.424z"/><path fill="#040265" d="M85 185.996h59.86v.679H65.35c-.01-.226-.018-.453-.027-.679H85z"/><path fill="#68A98D" d="M362.688 80.037c.248 25.695.258 51.336.223 77.436-.334-1.272-.868-3.004-.873-4.737-.063-23.908-.053-47.816-.063-72.186-.002-.461.475-.569.713-.513z"/><path fill="#00233D" d="M483.131 200.994c-.223-23.494-.196-46.805-.14-70.116.004-1.818.203-3.635.644-5.734.352 24.26.377 48.8.363 73.34 0 .897-.397 1.795-.867 2.51z"/><path fill="#39A325" d="M421.037 124.012c.19-.001.38-.002.85.044.198 25.101.113 50.156-.288 75.587-.317.375-.683.236-.647-.22.052-25.44.069-50.426.085-75.411z"/><path fill="#000963" d="M424 192.901v7.87l-.667-.009V145.23l.667-.01V192.9z"/><path fill="#013228" d="M325.54 157.893c.503.137.542.343.041.835-11.435.18-22.33.075-33.225-.031 0 0-.001-.4.077-.584.356-3.11.635-6.038.913-8.965l.382-.01.425 8.825c10.423 0 20.672 0 31.386-.07z"/><path fill="#6CAF82" d="M560.074 200.197c12.326-.262 24.605-.253 37.345-.266.486.16.511.342.03.805-12.77.276-25.031.272-37.293.268-.043-.178-.086-.357-.082-.807z"/><path fill="#054C1F" d="M206.38 201.232c12.097-.28 24.41-.205 37.196-.1-1.597.304-3.669.82-5.739.812-10.415-.044-20.829-.225-31.458-.712z"/><path fill="#074B21" d="M384.308 201.421c-.144-.315.028-.362.921-.424 12.643-.119 24.564-.223 36.485-.327-.78.433-1.559 1.244-2.337 1.243-11.585-.012-23.169-.13-35.069-.492z"/><path fill="#084B1F" d="M560.405 201.325c12.013-.317 24.275-.313 36.99-.318-.08.307-.617.899-1.15.897-11.864-.047-23.728-.16-35.84-.58z"/><path fill="#6CB185" d="M421.713 200.547c-11.92.227-23.841.331-36.226.38-.463-.056-.494-.432-.512-.62 11.336-.235 22.69-.283 34.75-.352a16.95 16.95 0 0 0 1.191-.076s.366.14.542.225c.175.087.254.32.255.443z"/><path fill="#084B1D" d="M446.349 201.27c11.435-.299 23.103-.254 35.247-.173-2.258.32-4.992.845-7.725.843-9.097-.007-18.193-.203-27.522-.67z"/><path fill="#000963" d="M423.998 133.356c-.077.678-.126 1.001-.25 1.292-.018.043-.569-.06-.57-.1-.029-2.11-.025-4.22.824-6.354 0 1.598 0 3.197-.004 5.162z"/><path fill="#00233D" d="M502.061 124.454c.852-.284 1.766-.249 2.865.085-.812.278-1.807.256-2.865-.085z"/><path fill="#97979A" d="M1019.77 70.574c.142 31.587.66 62.736.035 93.863-.257 12.757-6.663 23.554-16.575 31.877-4.757 3.993-10.676 4.56-16.501 4.6-21.65.148-43.3.154-64.95.038-13.055-.07-24.257-10.274-26.713-24.548-1.21-7.028-2.095-14.2-2.17-21.318-.263-24.979-.38-49.965-.014-74.941.222-15.17 4.3-29.106 17.616-38.345 3.178-2.205 7.22-4.415 10.89-4.457 22.791-.266 45.648-.863 68.367.54 17.49 1.08 26.954 11.921 29.415 29.296.14.988.343 1.966.6 3.395m-88.353 10.123c-.152.969-.436 1.938-.436 2.907-.02 23.438-.015 46.876.011 70.313.002 1.105.244 2.21.428 3.77 16.341 0 32.426.02 48.51-.078.578-.003 1.15-1.152 1.912-2.666V80.44c-17.11 0-33.381 0-50.425.258z"/><path fill="#979799" d="M880.893 74.044c-.054 6.822.27 13.183-.249 19.474-.8 9.72-4.79 17.941-13.03 23.7-.937.654-1.834 1.365-2.476 1.845 3.771 4.547 8.085 8.146 10.244 12.755 2.75 5.867 4.953 12.492 5.27 18.895.751 15.127.143 30.317.324 45.479.044 3.714-1.085 4.95-4.83 4.861-9.493-.225-19.003-.303-28.49.019-4.437.15-5.17-1.638-5.133-5.533.17-17.996-.057-35.995.175-53.989.056-4.393-1.186-5.686-5.617-5.59-13.457.29-26.923.105-40.87.105-.1 2.221-.247 3.988-.248 5.755-.016 17.83-.184 35.663.11 53.488.078 4.8-1.552 5.9-5.983 5.757-9.155-.297-18.328-.191-27.491-.048-3.29.052-4.758-.77-4.751-4.448.1-51.824.117-103.649-.01-155.472-.01-4.21 1.945-4.422 5.191-4.414 29.995.08 59.996.42 89.981-.104 14.728-.258 24.863 10.064 27.016 23.546.704 4.409.6 8.947.867 13.919m-40.836 28.008c.861-1.318 2.373-2.594 2.464-3.964.307-4.646-.014-9.33.154-13.99.11-3.038-1.016-4.055-4.06-4.022-12.166.133-24.333.053-36.5.052h-6.183c0 6.25.21 11.738-.073 17.2-.194 3.725 1.015 4.904 4.777 4.842 12.83-.212 25.665-.09 39.421-.118zM745.28 69.895c-.034 16.245.579 32.083-.374 47.826-.827 13.677-11.475 26.34-22.646 28.874-4.179.948-8.566 1.289-12.865 1.338-14.324.162-28.65.066-42.975.069h-6v52.338c-1.614.27-2.707.606-3.801.61-9.995.042-19.99-.075-29.982.083-3.338.053-4.698-.819-4.69-4.46.103-51.97.071-103.94.093-155.911.001-1.122.252-2.244.454-3.934h6.046c26.984 0 53.989.637 80.948-.197 22.76-.704 34.593 13.545 35.792 33.364m-39.313 40.154c-.037-8.022-.075-16.044.055-24.927-.085-1.576-.17-3.152-.255-4.698h-45.67c0 10.48-.098 20.596.158 30.702.025.961 2.25 2.659 3.473 2.677 12.974.195 25.95.114 38.927.122 2.001.001 3.842-.11 3.312-3.876z"/><path fill="#040268" d="M755.995 97V37.123l.705.002v161.548l-.705.006V97z"/><path fill="#FCFCFE" d="M876.2 119.283c2.869-3.359 5.547-6.414 8.58-9.875v22.357c-3.296-4.577-6.033-8.377-8.58-12.482z"/><path fill="#050560" d="M802.973 204.976c-.348-1.229-.93-2.464-.934-3.7-.06-18.667-.047-37.333-.033-56 0-.736.175-1.473.935-2.179 0 20.297 0 40.593.014 61.35.015.463.052.522.018.53z"/><path fill="#72F54C" d="M560.124 62.966V36.35c9.286 0 18.386-.087 27.482.045 3.375.049 6.743.609 9.905 1.641a546.463 546.463 0 0 0-.425 21.32c0 2.276-.3 3.976-3.463 3.26-9.03-.392-17.774-.336-26.496-.738-2.122-.098-4.174-1.7-6.09-2.537 0 .508 0 1.985-.23 3.496-.23.034-.683.13-.683.13z"/><path fill="#4DC62F" d="M560.058 63.198c.066-.232.52-.328 1.21-.297 11.344.018 21.997.006 32.65-.006 2.868.436 3.169-1.264 3.168-3.54 0-6.872.134-13.743.46-20.931.21 8.178.175 16.673-.66 25.384-12.811.177-24.821.139-36.832.1 0 0-.063-.478.004-.71z"/><path fill="#00095B" d="M597.007 64.994c-.179.334-.36.96-.536.96-11.964-.094-23.927-.237-35.705-.67 12.204-.292 24.223-.291 36.241-.29z"/><path fill="#132779" d="M597.01 64.784c-12.021.209-24.04.208-36.525.19-.464-.19-.463-.365-.446-.803 12.026-.224 24.036-.186 36.512-.082.465.065.462.485.46.695z"/><path fill="#020264" d="M604.45 33.551c.292 9.579.342 19.457.35 29.778-.295-5.416-.642-11.274-.773-17.136-.092-4.11.11-8.228.423-12.642z"/><path fill="#090F73" d="M79.924 141.045 104.94 93.35c8.697 16.288 16.855 31.568 25.014 47.63-.996 1.53-1.987 2.921-2.992 2.931-14.543.147-29.088.175-43.63-.015-1.148-.015-2.273-1.858-3.408-2.85m23.768-29.12-14.46 26.922h31.654c-5.282-9.693-10.223-18.776-15.236-27.818-.1-.18-1.056.115-1.958.895z"/><path fill="#87E880" d="M151.71 180.721c-30.73.317-61.735.32-93.206.34.737-.34 1.938-1.009 3.14-1.011 29.287-.06 58.574-.053 87.86-.036.643 0 1.285.256 2.206.707z"/><path fill="#022423" d="M79.645 141.274c1.414.764 2.539 2.607 3.687 2.622 14.542.19 29.087.162 43.63.015 1.005-.01 1.996-1.401 3.034-2.577.731.772 1.422 1.97 2.423 3.71H78.03c.506-1.34.922-2.44 1.616-3.77z"/><path fill="#83ED6E" d="M420.952 199.424c-.036.455-.52.508-.763.492-.224-23.32-.215-46.621-.17-69.923.004-1.808.255-3.616.704-5.702.298 24.706.281 49.692.229 75.133z"/><path fill="#64A388" d="M292.49 159.083c10.761-.28 21.656-.175 33.017-.05-.24.343-.948.956-1.65.948-10.411-.123-20.822-.328-31.367-.898z"/><path fill="#74F94C" d="M236.917 200.099c-8.814 0-17.14-.115-25.46.058-3.305.069-4.716-.745-4.709-4.408.104-51.272.105-102.544.01-153.816-.006-3.314 1.475-4.695 4.3-4.733 9.819-.134 19.64-.115 29.459-.058 3.178.018 3.508 2.212 3.486 4.831-.087 10.154-.036 20.31-.035 30.464l.006 121.355v6.307h-7.057z"/><path fill="#0D0D7D" d="m932.19 80.44 49.652-.001c0 24.82 0 49.662-.312 74.627-.386-1.702-.522-3.526-.523-5.35-.015-21.316.008-42.632-.04-63.948-.004-1.96.897-4.725-2.66-4.732-13.084-.025-26.168-.01-39.252-.01 12.114.963 24.228 1.052 36.34.904 3.313-.04 4.711.745 4.686 4.412-.15 21.814-.13 43.63-.014 65.446.017 3.29-1.07 4.306-4.312 4.27a1832.606 1832.606 0 0 0-39.467.003c-3.212.035-4.353-.923-4.335-4.243.119-21.982.017-43.965.151-65.946.01-1.581 1.32-3.154 2.053-4.797-.127-.04-1.047-.338-1.967-.636m31.294 70.69h10.25V87.034h-34.563v64.095h24.313z"/><path fill="#16146A" d="M931.803 80.568c1.307.169 2.227.466 2.354.507-.734 1.643-2.043 3.216-2.053 4.797-.134 21.981-.032 43.964-.15 65.946-.019 3.32 1.122 4.278 4.334 4.243 13.155-.141 26.313-.144 39.467-.002 3.242.035 4.329-.981 4.312-4.271-.117-21.815-.136-43.632.014-65.446.025-3.667-1.373-4.452-4.687-4.412-12.11.148-24.225.059-36.339-.904 13.084 0 26.168-.015 39.251.01 3.558.007 2.657 2.772 2.662 4.732.047 21.316.024 42.632.04 63.948 0 1.824.136 3.648.428 5.799-.357.942-.928 2.09-1.506 2.094-16.084.097-32.169.078-48.51.078-.184-1.56-.426-2.665-.428-3.77-.026-23.437-.031-46.875-.011-70.313 0-.97.284-1.938.822-3.036z"/><path fill="#0F0D7D" d="M839.596 102.063c-13.295.016-26.13-.105-38.96.107-3.762.062-4.971-1.117-4.777-4.841.283-5.463.073-10.952.073-17.2h6.183c12.167 0 24.334.08 36.5-.053 3.044-.033 4.17.984 4.06 4.022-.168 4.66.153 9.344-.154 13.99-.091 1.37-1.603 2.646-2.925 3.975m-15.164-6.472h10.044v-8.624h-30.618v8.624h20.574z"/><path fill="#0E0E7E" d="M705.854 85.984c.038 8.021.076 16.043-.163 24.53-.276.465-.706.47-.709.003-.003-7.447-.003-14.428-.003-21.408l-1.423.052c.477 7.272.953 14.545 1.15 22.13-13.498.453-26.718.678-39.935.554-.948-.009-2.64-2.547-2.68-3.947a309.168 309.168 0 0 1 .355-25.849c12.576-.03 24.682-.12 36.785.052 1.93.027 3.842 1.227 5.783 2.17.294.762.567 1.237.84 1.713m-10.438.738h-27.062v20.112h29.75c0-6.124.066-11.917-.075-17.704-.02-.81-1.06-1.596-2.613-2.408z"/><path fill="#211F7E" d="M705.938 85.553c-.357-.045-.63-.52-.939-1.696-1.42-1.41-2.796-2.716-4.19-2.736-11.57-.164-23.144-.125-34.716-.043-1.375.01-2.745.65-4.118.997-.003 8.609-.132 17.221.116 25.823.04 1.4 1.732 3.938 2.68 3.947 13.217.124 26.437-.1 39.943-.543.286-.303.271-.318.271-.318l.644-.007c.868 2.838-.973 2.95-2.974 2.948-12.976-.008-25.953.073-38.927-.122-1.223-.018-3.448-1.716-3.473-2.677-.256-10.106-.158-20.221-.158-30.702h45.67c.084 1.546.17 3.122.171 5.129z"/><path fill="#7DF45E" d="M593.623 62.615c-10.358.292-21.01.304-32.125.252-.462-1.542-.462-3.019-.462-3.527 1.917.837 3.97 2.439 6.091 2.537 8.722.402 17.466.346 26.496.738z"/><path fill="#FDFDFE" d="M103.865 111.572c.73-.427 1.685-.722 1.785-.542 5.013 9.042 9.954 18.125 15.236 27.818H89.233c4.99-9.293 9.724-18.108 14.632-27.276z"/><path fill="#FFF" d="m962.985 151.13-23.814-.001V87.034h34.564v64.095h-10.75z"/><path fill="#F0F0F5" d="M823.942 95.591h-20.084v-8.624h30.618v8.624h-10.534z"/><path fill="#FFF" d="M695.908 86.73c1.06.804 2.1 1.59 2.12 2.4.142 5.787.076 11.58.076 17.704h-29.75V86.722c8.958 0 18.01 0 27.554.008z"/><path fill="#040367" d="M662.446 82.05c.902-.323 2.272-.962 3.647-.972 11.572-.082 23.145-.121 34.715.043 1.395.02 2.771 1.326 4.17 2.45-1.905-.243-3.818-1.443-5.747-1.47-12.103-.171-24.21-.081-36.785-.052zM704.993 110.989c-.484-7.283-.96-14.556-1.437-21.828l1.423-.052c0 6.98 0 13.96.003 21.408.003.467.018.482.01.472z"/></svg>